<svg width="current" height="current" viewBox="0 0 100 100" fill="none" xmlns="http://www.w3.org/2000/svg">
<path opacity="0.15" fill-rule="evenodd" clip-rule="evenodd" d="M50 16.6667C31.5905 16.6667 16.6667 31.5905 16.6667 50C16.6667 68.4095 31.5905 83.3333 50 83.3333C68.4095 83.3333 83.3333 68.4095 83.3333 50C83.3333 31.5905 68.4095 16.6667 50 16.6667ZM0 50C0 22.3858 22.3858 0 50 0C77.6142 0 100 22.3858 100 50C100 77.6142 77.6142 100 50 100C22.3858 100 0 77.6142 0 50Z" fill="black"/>
<path fill-rule="evenodd" clip-rule="evenodd" d="M41.6667 8.33333C41.6667 3.73096 45.3977 0 50.0001 0C77.6143 0 100 22.3858 100 50C100 54.6024 96.2691 58.3333 91.6667 58.3333C87.0644 58.3333 83.3334 54.6024 83.3334 50C83.3334 31.5905 68.4096 16.6667 50.0001 16.6667C45.3977 16.6667 41.6667 12.9357 41.6667 8.33333Z" fill="#FF56D0"/>
</svg>
